<svg id="Layer_1" xmlns="http://www.w3.org/2000/svg" version="1.1" viewBox="0 0 48 48">
  <defs>
    <style>
      .st0 { fill: #fff; }
    </style>
  </defs>
  <path class="st0" d="M47.4,24c0,12.9-10.5,23.4-23.4,23.4S.6,36.9.6,24,11.1.6,24,.6s23.4,10.5,23.4,23.4ZM47,24C47,11.3,36.7,1,24,1S1,11.3,1,24s10.3,23,23,23,23-10.3,23-23Z"/>
  <path class="st0" d="M44.7,23.6c0,11.4-9.3,20.7-20.7,20.7S3.3,35.1,3.3,23.6,12.5,2.9,24,2.9s20.7,9.3,20.7,20.7ZM43.4,23.6c0-10.8-8.7-19.5-19.5-19.5S4.5,12.9,4.5,23.6s8.7,19.5,19.5,19.5,19.5-8.7,19.5-19.5Z"/>
  <path class="st0" d="M28.8,36v-1.2c0,0-.4,1.1-.4,1.1,0,0-.3.1-.4,0l-.4-1.3v1.3c0,0-.3,0-.3,0v-1.7c0,0,.3,0,.5,0l.5,1.3.5-1.3h.5s0,1.8,0,1.8h-.3Z"/>
  <path class="st0" d="M18.3,35.9c-.5.2-.2-.5-.5-.6s-.4,0-.5,0v.7c0,0-.4,0-.4,0v-1.7s.9,0,.9,0c.2,0,.4.2.5.3s0,.4-.1.6l.2.9ZM17.9,34.5c-.1,0-.5-.1-.6,0s0,.4,0,.4c.1,0,.5,0,.7,0s0-.3,0-.3Z"/>
  <path class="st0" d="M26.7,36c-.2,0,0-.5-.3-.7s-.5-.1-.5,0v.6c0,0-.3,0-.4,0v-1.8s.9,0,.9,0c.2,0,.4.2.5.3,0,.2,0,.5-.1.6l.2.8c0,0-.2.1-.2,0ZM26.5,34.5c-.1,0-.5,0-.5,0s0,.3,0,.4c0,0,.6.1.7-.1s0-.3-.1-.3Z"/>
  <path class="st0" d="M23.4,35.9s-.2.1-.2,0h0c0-.1,0-.9,0-.9h-.7s0,.8,0,.8c0,0-.3,0-.3,0v-1.7c0,0,.2-.1.3-.1v.7s.8,0,.8,0v-.7s.3,0,.3,0v1.7Z"/>
  <path class="st0" d="M25.1,36c-.2-.1-.2-.4-.3-.4h-.4c-.2,0-.3,0-.4.2s0,.2-.1.2-.2,0-.3,0l.6-1.7c0-.1.4,0,.4,0l.6,1.7s-.2.1-.2,0ZM24.7,35.2l-.2-.7-.2.7h.5Z"/>
  <path class="st0" d="M30.6,35.8c0-.2-.2-.3-.4-.2h-.4c0,0-.1.2-.2.3h0c0,.2-.3,0-.3,0l.6-1.7c.1,0,.3,0,.4,0l.6,1.7h-.3c0,0-.1,0-.1-.2ZM30.4,35.2l-.3-.6-.2.6h.5Z"/>
  <path class="st0" d="M19.8,35.8v-.3c-.2,0-.4,0-.5,0h-.3c-.1,0-.1.5-.3.5h-.3c0,0,.5-1.6.5-1.6,0-.1,0-.2.1-.3s.3,0,.3,0l.6,1.7c0,0-.2.2-.2.1s-.1-.1-.1-.2ZM19.6,35.2l-.3-.7-.2.7h.5Z"/>
  <path class="st0" d="M21.7,34.8c-.1.7-1,.4-1,.5v.3c0,.1,0,.2,0,.3s-.3,0-.3,0v-1.7c.4,0,.7,0,1,0s.4.4.4.7ZM21.3,35c0-.2,0-.3,0-.5h-.6s0,.5,0,.5h.6Z"/>
  <path class="st0" d="M15,34.9c-.2.6-1,.3-1,.5v.3c0,0,0,.2,0,.3s-.3,0-.3,0v-1.7c.4,0,.7,0,1.1,0s.4.5.3.7ZM14.5,35c.1-.1.2-.4,0-.5s-.3,0-.6,0v.6s.5,0,.5,0Z"/>
  <path class="st0" d="M16.3,35.8c0-.2-.2-.3-.4-.3h-.4c-.1,0-.2.5-.3.5s-.2,0-.3,0l.6-1.8h.4s.6,1.8.6,1.8h-.2c0,0-.1,0-.1-.1ZM16.1,35.2l-.3-.7-.3.6h.5Z"/>
  <path class="st0" d="M34.8,35.2h-.7s0,.5,0,.5h.9c0,0,0,.3,0,.3h-1.2s0-1.9,0-1.9h1.1c0,0,.2,0,.2.1s-.1.2-.2.2h-.8s0,.4,0,.4h.8c0,0,0,.3,0,.3Z"/>
  <path class="st0" d="M31.5,34.7c-.2.5,0,1,.4,1.1s.4,0,.5-.2h.1c0-.2.2-.1.2,0s0,.2,0,.3c-.2.4-.6.4-1,.3s-.5-.5-.5-.9.2-.7.5-.9.8-.1,1,.2,0,.2,0,.2-.2,0-.2,0c0,0-.3-.2-.4-.2s-.4.1-.4.2Z"/>
  <rect class="st0" x="36" y="35.1" width="2.7" height=".3"/>
  <rect class="st0" x="10" y="35" width="2.8" height=".3"/>
  <rect class="st0" x="33" y="34.1" width=".3" height="1.9"/>
  <path class="st0" d="M21.6,25c.8-2.9-.1-6.2-2.1-8.4s-.4-.4-.6-.5c1.2,2.4,2.5,4.9,2.3,7.7-.2,0-.4,0-.6,0-1.8-.8-3.3-2.3-4.2-4.1-1.3-2.7-1-5.5-.2-8.2.1,0,.3,0,.4,0,1.3.5,2.4,1.2,3.4,2,1.8,1.5,3.1,3.6,3.3,5.9s-.2,3.7-.9,5.5-.6,1.5-1.1,2.1-.2,0-.2,0,0-.1,0-.2c.2-.5.4-1.2.6-1.8Z"/>
  <path class="st0" d="M24.8,16.5l.5-1.4c-.7.6-.9,1.4-1.1,2.3-.5-.9-.5-2.1.1-2.9s1.4-1.4,2.4-1.6c.6,1.7-.1,4.2-2.1,4.5,0-.3,0-.6.2-.9Z"/>
  <path class="st0" d="M30.3,22.2c.6-1-.2-1.4.2-1.6s.7.9.1,1.9l-3.1,5.3c-.4.7-1.3.9-2,.4l-2.4-1.4c-.6-.3-.9-1-.5-1.7s.4-.9.7-1.3l2.6-4.5c.5-.8,1.6-1,1.6-.6s-.7,0-1.2.8l-3.2,5.6c-.3.5,0,1.1.4,1.4l2.3,1.4c.4.2,1.1.3,1.3-.1l3.2-5.5Z"/>
  <path class="st0" d="M31.8,18.3l-.8,1.4c0,0-.3.2-.3.1l-3-1.7,1-1.6c0-.1.4-.2.5,0l2.4,1.4c.2.1.2.3.1.5Z"/>
  <path class="st0" d="M27.3,24.2h-.2s0,0,0,.2c0,.2,0,.4-.1.6s-.4.2-.6.3c0,.3,0,.6-.4.7h-.5c-.2-.4,0-.8.3-1.1-.1-.2-.2-.5,0-.7s.4-.3.6-.3c-.1-.2-.3-.4-.4-.7s.1-.5.3-.6c.3,0,.6,0,.7.4l.2-.4c-.4.1-.6-.1-.8-.4s-.5-.6-.5-1l.9.2c.6.2.5.4.6.8.1-.3.2-.5.2-.8s.3-.3.5-.3.3.3.2.6c-.2.3-.4-.1-.7.8.2-.1.4-.2.5-.3s.5,0,.6.2l.5.7c-.5.2-1,0-1.5,0,.1.2.2.5.2.7s-.3.3-.6.4ZM26.9,23.1c-.1-.1-.4-.2-.5-.3-.1.3,0,.5.2.8l.3-.5ZM27.2,23.4c0-.2.4-.2.2-.5l-.5.9c.3,0,.5,0,.7-.3l-.4-.2ZM26.3,24.2c0,0-.3,0-.3,0s0,.2,0,.3l.2-.4ZM26.3,24.9c.1,0,.3,0,.4-.1s0-.3,0-.4c-.2,0-.3.3-.3.5ZM25.8,25.6c.2,0,.2-.2.2-.4l-.2.4Z"/>
  <path class="st0" d="M31.5,17.4l-1.8-1,.6-.8c.5-.7.8-1.9,1.7-1.6s.5.4.5.8-.3.8-.6,1.2c-.3.4-.4.7-.5,1.4Z"/>
  <path class="st0" d="M30.1,20.5l-2.4-1.3c0,0-.1-.2,0-.3s.2,0,.3,0l2.2,1.2c0,0,.1.2.2.2s-.1.3-.2.2Z"/>
  <path class="st0" d="M10.1,32c-.5.8-1.7.7-2.5.6v-3.3s1.3,0,1.3,0c.5,0,1.1.3,1.3.8s.2,1.2,0,1.8ZM9.3,31.9c.4-.4.4-1.3,0-1.7s-.7-.2-1.1-.2v2.1c.4,0,.8,0,1.1-.2Z"/>
  <path class="st0" d="M21.2,33.5h-.6s0-3,0-3c.2-.2.5-.1.6,0,.2-.2.5-.3.8-.2.7.1,1,1.2.6,1.9s-.9.7-1.5.3v.9ZM22,32.1c.3-.3.3-.8.1-1.1s-.3-.2-.4-.2-.3.1-.3.2c-.2.3-.2.7,0,1s.5.3.7.1Z"/>
  <path class="st0" d="M23.8,32.8c-.4,0-.6-.3-.7-.5s0-.7.3-.8c.6-.2,1.1-.1,1.1-.4s0-.3-.1-.3c-.2,0-.6,0-.6.3h-.6c.1-.8,1-.9,1.6-.7s.4.4.4.7v1.4c0,0,.1.2,0,.2h-.3c-.1,0-.4,0-.5-.1-.2.1-.5.3-.7.2ZM24,32.3c.2,0,.4,0,.5-.2s0-.3,0-.5h-.6c-.1.1-.2.3-.2.4s.2.2.3.2Z"/>
  <path class="st0" d="M10.8,32.6c-.4-.3-.3-1,0-1.2s1-.1,1.1-.4,0-.2,0-.2c-.3-.2-.5,0-.7.2s-.5,0-.6,0c.1-.6.7-.7,1.2-.7,1.3,0,.7,1.4.9,2.4-.3,0-.6.1-.7-.2-.3.3-.8.4-1.3.1ZM11.6,32.2c.2,0,.4-.1.4-.2s0-.3,0-.5h-.6c-.1.2-.2.4-.2.5s.2.2.3.2Z"/>
  <path class="st0" d="M39.7,32h.7c-.1.6-.6.8-1.1.8s-1.1-.4-1.2-1,0-.8.3-1.1c.4-.4,1.2-.4,1.6,0s.3.7.3,1.1h-1.6c0,.2.1.5.3.5s.5.1.6-.2ZM39.7,31.3c0-.4-.3-.5-.5-.5s-.4.2-.3.5h.9Z"/>
  <path class="st0" d="M32.2,32.7c-.3-.2-.4-.5-.4-.8,0-.6.8-.6,1.4-.7s0-.3,0-.3-.2-.1-.3-.1c-.5,0-.3.6-1.1.2,0-.6.6-.7,1.1-.7s.9.2.9.6v1.4c0,.1,0,.2.1.4-.3,0-.6,0-.8-.1-.3,0-.6.3-1,.1ZM32.8,32.3c.2,0,.4-.1.5-.2s0-.3,0-.5h-.6c-.1.2-.2.4-.2.5s.2.2.4.2Z"/>
  <path class="st0" d="M27.3,32.5c-.2-.2-.2-.5-.2-.8s.3-.4.6-.4h.7c0-.1.2-.3.2-.3s-.1-.2-.2-.2c-.7-.2-.4.5-1.2.3,0-.6.6-.7,1.1-.7s.5,0,.7.2c.4.3.1,1.6.3,2.2-.2,0-.5,0-.7-.1-.4.2-.9.4-1.3,0ZM28.1,32.3c.2,0,.4-.1.5-.2s0-.3,0-.5h-.6c-.1.2-.2.3-.2.4s.2.3.3.3Z"/>
  <path class="st0" d="M35.5,30.9c-.7-.3-.5,1.4-.5,1.8-.1,0-.4,0-.6,0v-2.3c.2-.1.5-.1.6.1.3-.3.8-.4,1.2,0s.2.4.2.5v1.7s-.6,0-.6,0v-1.5c0-.2-.1-.3-.3-.4Z"/>
  <path class="st0" d="M19.3,32.6c-.4.2-.8.2-1.1,0s-.6-.4-.6-.7c.9-.2.5.4,1.1.3s.3-.1.3-.2,0-.3-.2-.3h-.6c-.3-.2-.6-.4-.6-.7s.1-.6.4-.7c.5-.2,1.4-.2,1.5.6-.7.3-.5-.2-1-.3s-.3,0-.4.3l.9.3c.3,0,.5.3.5.6s0,.6-.4.7Z"/>
  <path class="st0" d="M13.8,31.2v1.4c-.2,0-.4,0-.7,0v-2.2c.2-.3.5,0,.7,0s.5-.2.7-.2c1,.2.5,1.4.6,2.4h-.6s0-1.4,0-1.4c0-.2-.2-.4-.3-.5s-.5.1-.5.3Z"/>
  <path class="st0" d="M31.4,31.5c.3.2.2.6,0,.9s-.5.4-.8.4c-.5,0-1-.2-1.1-.8.9-.2.5.4,1.1.3s.3,0,.3-.1,0-.3-.2-.3h-.7c-.3-.2-.5-.5-.6-.7s.1-.6.4-.7c.5-.2,1.4-.2,1.5.6-.1,0-.4,0-.5,0-.2-.2-.4-.3-.6-.2s-.2.1-.2.2c-.2.3.7.2,1.2.6Z"/>
  <path class="st0" d="M37.6,32c0,.4.5,0,.5.6s-.2.1-.4.2c-.4,0-.7-.2-.7-.6v-1.3c-.2,0-.3-.1-.3-.2,0-.1,0-.3.3-.3v-.7s.7,0,.7,0v.7c.2,0,.3,0,.4,0s0,.3,0,.3-.2,0-.4,0v1.2Z"/>
  <path class="st0" d="M26.2,32.7h-.6s0-2.3,0-2.3c.3,0,.6,0,.6.2.2-.1.4-.2.7-.3,0,.2,0,.4,0,.6-.3,0-.7.2-.7.5v1.3Z"/>
  <path class="st0" d="M16.2,32.7c-.2,0-.4,0-.6,0v-2.3s.6,0,.6,0v2.3Z"/>
  <path class="st0" d="M16.7,30.1c0-.3.1-.5,0-.7s.2-.4.3-.4c.2,0,.3.3.3.5,0,.3-.2.7-.6.6Z"/>
  <circle class="st0" cx="15.9" cy="29.8" r=".4"/>
</svg>